<svg width="131" height="31" viewBox="0 0 571 171" fill="none" xmlns="http://www.w3.org/2000/svg">
<path d="M93.64 88.704C94.92 88.192 95.9867 87.936 96.84 87.936C98.2053 87.936 99.2293 88.448 99.912 89.472C100.595 90.496 100.936 91.8187 100.936 93.44C100.936 96 100.296 98.176 99.016 99.968C97.8213 101.76 95.7307 103.381 92.744 104.832C87.7093 107.221 81.1813 109.141 73.16 110.592C65.1387 111.957 57.2453 112.64 49.48 112.64C38.728 112.64 29.7253 111.445 22.472 109.056C15.2187 106.581 9.8 103.211 6.216 98.944C2.71733 94.6773 0.968 89.856 0.968 84.48C0.968 77.1413 3.31467 70.912 8.008 65.792C12.7867 60.5867 19.784 56.832 29 54.528C23.9653 53.0773 20.0827 50.5173 17.352 46.848C14.7067 43.1787 13.384 39.0827 13.384 34.56C13.384 28.416 15.304 22.9973 19.144 18.304C23.0693 13.5253 28.3173 9.856 34.888 7.296C41.4587 4.73599 48.6693 3.45599 56.52 3.45599C67.1013 3.45599 75.0373 5.75999 80.328 10.368C85.6187 14.8907 88.264 20.7787 88.264 28.032C88.264 33.0667 87.3253 37.1627 85.448 40.32C83.656 43.392 81.0533 44.928 77.64 44.928C75.2507 44.928 73.3733 44.416 72.008 43.392C70.6427 42.2827 69.96 40.6613 69.96 38.528C69.96 37.0773 70.1733 35.4987 70.6 33.792C71.0267 30.976 71.24 29.056 71.24 28.032C71.24 24.96 70.088 22.4853 67.784 20.608C65.48 18.6453 61.64 17.664 56.264 17.664C49.0107 17.664 43.208 19.2 38.856 22.272C34.504 25.344 32.328 29.4827 32.328 34.688C32.328 38.6987 33.9493 42.0267 37.192 44.672C40.52 47.232 45.896 48.64 53.32 48.896C55.1973 48.9813 56.52 49.408 57.288 50.176C58.056 50.944 58.44 52.224 58.44 54.016C58.44 59.648 55.88 62.5067 50.76 62.592C43.6773 62.7627 37.7893 63.744 33.096 65.536C28.488 67.328 25.1173 69.632 22.984 72.448C20.936 75.1787 19.912 78.1227 19.912 81.28C19.912 86.5707 22.3867 90.5813 27.336 93.312C32.2853 95.9573 40.136 97.28 50.888 97.28C57.9707 97.28 65.4373 96.4693 73.288 94.848C81.224 93.1413 88.008 91.0933 93.64 88.704ZM153.004 73.088C153.26 73.0027 153.687 72.96 154.284 72.96C155.564 72.96 156.545 73.3867 157.228 74.24C157.911 75.0933 158.252 76.2453 158.252 77.696C158.252 80.3413 157.74 82.432 156.716 83.968C155.692 85.4187 154.156 86.4853 152.108 87.168C148.183 88.448 144.001 89.088 139.564 89.088C135.809 89.088 132.268 88.576 128.94 87.552C126.465 91.5627 123.735 95.7013 120.748 99.968C117.335 104.832 114.391 108.16 111.916 109.952C109.441 111.744 106.625 112.64 103.468 112.64C99.9693 112.64 97.196 111.275 95.148 108.544C93.1853 105.813 91.948 101.504 91.436 95.616C90.412 83.6693 89.9 73.216 89.9 64.256V59.776C89.9853 56.96 90.7533 54.9973 92.204 53.888C93.6547 52.7787 95.8307 52.224 98.732 52.224C100.951 52.224 102.572 52.736 103.596 53.76C104.705 54.6987 105.26 56.32 105.26 58.624C105.26 68.4373 105.857 81.1947 107.052 96.896C112.172 89.3013 116.012 83.2427 118.572 78.72C117.292 76.2453 116.652 73.3013 116.652 69.888C116.652 66.9867 117.292 64.1707 118.572 61.44C119.852 58.7093 121.601 56.4907 123.82 54.784C126.039 53.0773 128.556 52.224 131.372 52.224C133.847 52.224 135.852 53.12 137.388 54.912C138.924 56.6187 139.692 59.136 139.692 62.464C139.692 66.304 138.668 70.6987 136.62 75.648C139.863 75.4773 144.172 74.8373 149.548 73.728L153.004 73.088ZM204.232 83.456C205.341 83.456 206.195 83.968 206.792 84.992C207.475 86.016 207.816 87.424 207.816 89.216C207.816 92.6293 207.005 95.2747 205.384 97.152C202.227 100.992 197.747 104.533 191.944 107.776C186.227 111.019 180.083 112.64 173.512 112.64C164.552 112.64 157.597 110.208 152.648 105.344C147.699 100.48 145.224 93.824 145.224 85.376C145.224 79.488 146.461 74.0267 148.936 68.992C151.411 63.872 154.824 59.8187 159.176 56.832C163.613 53.8453 168.605 52.352 174.152 52.352C179.101 52.352 183.069 53.8453 186.056 56.832C189.043 59.7333 190.536 63.7013 190.536 68.736C190.536 74.624 188.403 79.7013 184.136 83.968C179.955 88.1493 172.829 91.4773 162.76 93.952C164.893 97.8773 168.947 99.84 174.92 99.84C178.76 99.84 183.112 98.5173 187.976 95.872C192.925 93.1413 197.192 89.6 200.776 85.248C201.8 84.0533 202.952 83.456 204.232 83.456ZM171.976 64.896C168.819 64.896 166.131 66.7307 163.912 70.4C161.779 74.0693 160.712 78.5067 160.712 83.712V83.968C165.747 82.7733 169.715 80.9813 172.616 78.592C175.517 76.2027 176.968 73.4293 176.968 70.272C176.968 68.6507 176.499 67.3707 175.56 66.432C174.707 65.408 173.512 64.896 171.976 64.896ZM206.482 112.64C203.239 112.64 200.935 110.933 199.57 107.52C198.29 104.107 197.65 98.6453 197.65 91.136C197.65 80.0427 199.229 69.504 202.386 59.52C203.154 57.0453 204.391 55.2533 206.098 54.144C207.89 52.9493 210.365 52.352 213.522 52.352C215.229 52.352 216.423 52.5653 217.106 52.992C217.789 53.4187 218.13 54.2293 218.13 55.424C218.13 56.7893 217.49 59.8613 216.21 64.64C215.357 68.0533 214.674 71.04 214.162 73.6C213.65 76.16 213.223 79.3173 212.882 83.072C215.698 75.7333 218.855 69.76 222.354 65.152C225.853 60.544 229.266 57.2587 232.594 55.296C236.007 53.3333 239.122 52.352 241.938 52.352C247.485 52.352 250.258 55.1253 250.258 60.672C250.258 64 249.319 70.016 247.442 78.72C245.821 86.144 245.01 91.0507 245.01 93.44C245.01 96.8533 246.247 98.56 248.722 98.56C250.429 98.56 252.434 97.536 254.738 95.488C257.127 93.3547 260.285 89.9413 264.21 85.248C265.234 84.0533 266.386 83.456 267.666 83.456C268.775 83.456 269.629 83.968 270.226 84.992C270.909 86.016 271.25 87.424 271.25 89.216C271.25 92.6293 270.439 95.2747 268.818 97.152C265.149 101.675 261.181 105.387 256.914 108.288C252.733 111.189 247.954 112.64 242.578 112.64C238.226 112.64 234.941 111.403 232.722 108.928C230.503 106.368 229.394 102.699 229.394 97.92C229.394 95.5307 229.991 91.264 231.186 85.12C232.295 79.744 232.85 76.032 232.85 73.984C232.85 72.6187 232.381 71.936 231.442 71.936C230.333 71.936 228.754 73.3867 226.706 76.288C224.743 79.104 222.695 82.8587 220.562 87.552C218.514 92.2453 216.85 97.1947 215.57 102.4C214.631 106.411 213.522 109.141 212.242 110.592C211.047 111.957 209.127 112.64 206.482 112.64ZM317.982 83.456C319.091 83.456 319.945 83.968 320.542 84.992C321.225 86.016 321.566 87.424 321.566 89.216C321.566 92.6293 320.755 95.2747 319.134 97.152C315.465 101.675 311.454 105.387 307.102 108.288C302.75 111.189 297.758 112.64 292.126 112.64C274.718 112.64 266.014 100.395 266.014 75.904C266.014 72.1493 266.142 68.352 266.398 64.512H261.406C258.846 64.512 257.097 64.0427 256.158 63.104C255.305 62.1653 254.878 60.672 254.878 58.624C254.878 53.8453 256.798 51.456 260.638 51.456H267.934C269.385 42.0693 271.603 33.4933 274.59 25.728C277.577 17.9627 281.161 11.776 285.342 7.16799C289.609 2.56 294.174 0.255997 299.038 0.255997C302.622 0.255997 305.438 1.83466 307.486 4.992C309.534 8.14933 310.558 12.1173 310.558 16.896C310.558 30.1227 305.011 41.6427 293.918 51.456H308.254C309.619 51.456 310.601 51.7547 311.198 52.352C311.795 52.9493 312.094 54.0587 312.094 55.68C312.094 61.568 307.273 64.512 297.63 64.512H282.014C281.843 68.7787 281.758 72.1067 281.758 74.496C281.758 83.3707 282.782 89.6 284.83 93.184C286.963 96.768 290.291 98.56 294.814 98.56C298.483 98.56 301.726 97.4507 304.542 95.232C307.358 93.0133 310.686 89.6853 314.526 85.248C315.55 84.0533 316.702 83.456 317.982 83.456ZM295.582 12.544C294.302 12.544 292.851 14.1653 291.23 17.408C289.694 20.5653 288.201 25.0027 286.75 30.72C285.385 36.352 284.233 42.624 283.294 49.536C288.329 45.184 292.083 40.32 294.558 34.944C297.118 29.4827 298.398 24.5333 298.398 20.096C298.398 15.0613 297.459 12.544 295.582 12.544ZM346.856 113.024C335.507 113.024 326.419 110.891 319.592 106.624C312.765 102.272 309.352 95.6587 309.352 86.784C309.352 82.0907 310.163 78.5067 311.784 76.032C313.405 73.5573 315.795 72.32 318.952 72.32C321.256 72.32 323.133 72.9173 324.584 74.112C326.035 75.3067 326.76 76.8427 326.76 78.72C326.76 80.4267 326.632 81.92 326.376 83.2C326.376 83.5413 326.291 84.1387 326.12 84.992C326.035 85.8453 325.992 86.7413 325.992 87.68C325.992 91.52 327.912 94.3787 331.752 96.256C335.677 98.1333 341.139 99.072 348.136 99.072C355.389 99.072 361.064 97.792 365.16 95.232C369.256 92.5867 371.304 88.9173 371.304 84.224C371.304 81.3227 370.365 78.848 368.488 76.8C366.611 74.6667 364.264 72.9173 361.448 71.552C358.632 70.1013 354.664 68.352 349.544 66.304C342.973 63.744 337.597 61.312 333.416 59.008C329.32 56.704 325.779 53.5893 322.792 49.664C319.891 45.6533 318.44 40.704 318.44 34.816C318.44 28.672 320.061 23.2107 323.304 18.432C326.632 13.6533 331.368 9.94133 337.512 7.296C343.741 4.65066 351.037 3.328 359.4 3.328C365.629 3.328 371.347 4.26666 376.552 6.144C381.757 7.93599 385.896 10.7093 388.968 14.464C392.125 18.2187 393.704 22.8267 393.704 28.288C393.704 33.664 392.893 37.7173 391.272 40.448C389.651 43.1787 387.261 44.544 384.104 44.544C381.885 44.544 380.008 43.8613 378.472 42.496C377.021 41.1307 376.296 39.5093 376.296 37.632C376.296 36.0107 376.424 34.5173 376.68 33.152C376.936 30.592 377.064 28.9707 377.064 28.288C377.064 24.704 375.315 21.9733 371.816 20.096C368.317 18.2187 363.965 17.28 358.76 17.28C351.421 17.28 345.789 18.6453 341.864 21.376C338.024 24.0213 336.104 27.776 336.104 32.64C336.104 35.8827 337.085 38.656 339.048 40.96C341.096 43.264 343.613 45.184 346.6 46.72C349.587 48.256 353.768 50.0907 359.144 52.224C365.629 54.8693 370.835 57.2587 374.76 59.392C378.685 61.5253 382.013 64.4267 384.744 68.096C387.56 71.7653 388.968 76.288 388.968 81.664C388.968 91.7333 385.128 99.4987 377.448 104.96C369.853 110.336 359.656 113.024 346.856 113.024ZM464.805 83.712C465.914 83.712 466.768 84.2667 467.365 85.376C468.048 86.4 468.389 87.7227 468.389 89.344C468.389 91.3067 468.09 92.8427 467.493 93.952C466.896 95.0613 465.957 96.0427 464.677 96.896L440.101 113.408C436.858 131.072 432.592 144.939 427.301 155.008C422.096 165.163 415.44 170.24 407.333 170.24C402.981 170.24 399.44 168.875 396.709 166.144C393.978 163.499 392.613 160 392.613 155.648C392.613 151.637 393.509 147.541 395.301 143.36C397.178 139.179 400.592 134.357 405.541 128.896C410.576 123.52 417.658 117.333 426.789 110.336L427.173 107.392C427.77 104.235 428.453 99.712 429.221 93.824C427.514 99.968 425.125 104.661 422.053 107.904C418.981 111.061 415.738 112.64 412.325 112.64C408.485 112.64 405.328 110.891 402.853 107.392C400.464 103.808 399.269 99.3707 399.269 94.08C399.269 87.68 399.696 81.8347 400.549 76.544C401.402 71.168 402.81 65.4933 404.773 59.52C405.626 56.96 406.821 55.1253 408.357 54.016C409.893 52.9067 412.325 52.352 415.653 52.352C417.53 52.352 418.81 52.6507 419.493 53.248C420.261 53.8453 420.645 54.7413 420.645 55.936C420.645 56.6187 420.176 58.9227 419.237 62.848C418.384 66.0053 417.701 68.864 417.189 71.424C416.506 74.9227 415.909 78.2933 415.397 81.536C414.885 84.6933 414.629 87.296 414.629 89.344C414.629 92.5867 415.525 94.208 417.317 94.208C418.597 94.208 420.176 92.928 422.053 90.368C424.016 87.808 426.064 83.9253 428.197 78.72C430.416 73.5147 432.549 67.1147 434.597 59.52C435.28 56.96 436.304 55.1253 437.669 54.016C439.12 52.9067 441.253 52.352 444.069 52.352C446.032 52.352 447.397 52.608 448.165 53.12C448.933 53.632 449.317 54.4853 449.317 55.68C449.317 57.8133 448.208 65.152 445.989 77.696L442.661 98.304C449.232 93.3547 455.632 88.832 461.861 84.736C462.97 84.0533 463.952 83.712 464.805 83.712ZM408.741 157.824C410.874 157.824 413.264 155.349 415.909 150.4C418.554 145.451 421.2 137.216 423.845 125.696C417.274 131.243 412.496 136.277 409.509 140.8C406.608 145.408 405.157 149.419 405.157 152.832C405.157 154.283 405.413 155.477 405.925 156.416C406.522 157.355 407.461 157.824 408.741 157.824ZM468.232 112.64C464.989 112.64 462.685 110.933 461.32 107.52C460.04 104.107 459.4 98.6453 459.4 91.136C459.4 80.0427 460.979 69.504 464.136 59.52C464.904 57.0453 466.141 55.2533 467.848 54.144C469.64 52.9493 472.115 52.352 475.272 52.352C476.979 52.352 478.173 52.5653 478.856 52.992C479.539 53.4187 479.88 54.2293 479.88 55.424C479.88 56.7893 479.24 59.8613 477.96 64.64C477.107 68.0533 476.424 71.04 475.912 73.6C475.4 76.16 474.973 79.3173 474.632 83.072C477.448 75.7333 480.605 69.76 484.104 65.152C487.603 60.544 491.016 57.2587 494.344 55.296C497.757 53.3333 500.872 52.352 503.688 52.352C509.235 52.352 512.008 55.1253 512.008 60.672C512.008 64 511.069 70.016 509.192 78.72C507.571 86.144 506.76 91.0507 506.76 93.44C506.76 96.8533 507.997 98.56 510.472 98.56C512.179 98.56 514.184 97.536 516.488 95.488C518.877 93.3547 522.035 89.9413 525.96 85.248C526.984 84.0533 528.136 83.456 529.416 83.456C530.525 83.456 531.379 83.968 531.976 84.992C532.659 86.016 533 87.424 533 89.216C533 92.6293 532.189 95.2747 530.568 97.152C526.899 101.675 522.931 105.387 518.664 108.288C514.483 111.189 509.704 112.64 504.328 112.64C499.976 112.64 496.691 111.403 494.472 108.928C492.253 106.368 491.144 102.699 491.144 97.92C491.144 95.5307 491.741 91.264 492.936 85.12C494.045 79.744 494.6 76.032 494.6 73.984C494.6 72.6187 494.131 71.936 493.192 71.936C492.083 71.936 490.504 73.3867 488.456 76.288C486.493 79.104 484.445 82.8587 482.312 87.552C480.264 92.2453 478.6 97.1947 477.32 102.4C476.381 106.411 475.272 109.141 473.992 110.592C472.797 111.957 470.877 112.64 468.232 112.64ZM546.452 112.64C538.345 112.64 531.988 110.293 527.38 105.6C522.857 100.821 520.596 94.5493 520.596 86.784C520.596 79.872 521.961 73.8133 524.692 68.608C527.423 63.4027 530.964 59.392 535.316 56.576C539.668 53.76 544.233 52.352 549.012 52.352C553.705 52.352 557.332 53.76 559.892 56.576C562.537 59.3067 563.86 62.848 563.86 67.2C563.86 70.784 563.049 73.8133 561.428 76.288C559.892 78.7627 557.844 80 555.284 80C553.663 80 552.34 79.616 551.316 78.848C550.377 78.08 549.908 77.0133 549.908 75.648C549.908 75.0507 549.993 74.368 550.164 73.6C550.335 72.832 550.463 72.2773 550.548 71.936C550.975 70.656 551.188 69.4613 551.188 68.352C551.188 67.2427 550.889 66.3893 550.292 65.792C549.78 65.1947 549.012 64.896 547.988 64.896C546.025 64.896 544.191 65.792 542.484 67.584C540.777 69.2907 539.412 71.6373 538.388 74.624C537.364 77.6107 536.852 80.896 536.852 84.48C536.852 89.344 537.833 93.056 539.796 95.616C541.844 98.0907 544.703 99.328 548.372 99.328C551.273 99.328 553.919 98.4747 556.308 96.768C558.783 95.0613 561.215 92.544 563.604 89.216C564.628 87.936 565.78 87.296 567.06 87.296C568.169 87.296 569.023 87.808 569.62 88.832C570.303 89.856 570.644 91.264 570.644 93.056C570.644 96.128 569.919 98.7733 568.468 100.992C566.164 104.576 563.135 107.435 559.38 109.568C555.625 111.616 551.316 112.64 546.452 112.64Z" fill="url(#paint0_linear_8_37)"/>
<defs>
<linearGradient id="paint0_linear_8_37" x1="-3" y1="57.5" x2="213.455" y2="65.5197" gradientUnits="userSpaceOnUse">
<stop stop-color="#0693C2"/>
<stop offset="1" stop-color="#03465C"/>
</linearGradient>
</defs>
</svg>
